<?xml version="1.0" ?><!DOCTYPE svg  PUBLIC '-//W3C//DTD SVG 1.1//EN'  'http://www.w3.org/Graphics/SVG/1.1/DTD/svg11.dtd'><svg xmlns="http://www.w3.org/2000/svg" xmlns:xlink="http://www.w3.org/1999/xlink" xmlns:serif="http://www.serif.com/" width="100%" height="100%" viewBox="0 0 512 512" version="1.1" xml:space="preserve" style="fill-rule:evenodd;clip-rule:evenodd;stroke-linejoin:round;stroke-miterlimit:2;"><g transform="matrix(1,0,0,1,0,-2810)"><g id="Icons"><path d="M444.217,2847.37L429.109,2840.47C426.597,2839.32 423.631,2840.43 422.483,2842.94L372.6,2952.14C371.454,2954.65 372.561,2957.62 375.071,2958.77C377.581,2959.91 380.55,2958.81 381.696,2956.3L429.502,2851.64L440.062,2856.47L372.292,3004.82C370.792,3008.11 371.542,3011.85 373.896,3014.32L357.308,3050.63L357.308,2853.34C357.308,2847.83 352.831,2843.35 347.316,2843.35C347.316,2843.35 40.198,2843.35 40.198,2843.35C34.684,2843.35 30.207,2847.83 30.207,2853.34L30.207,2883.32C22.602,2886.31 17.578,2890.5 14.649,2894.88C9.664,2902.33 10.021,2910.71 14.119,2917.21C17.318,2922.28 22.901,2926.26 30.207,2927.49L30.207,2941.34C22.602,2944.33 17.578,2948.51 14.649,2952.89C9.664,2960.35 10.021,2968.73 14.119,2975.22C17.318,2980.3 22.901,2984.28 30.207,2985.5L30.207,2999.36C22.602,3002.35 17.578,3006.53 14.649,3010.91C9.664,3018.37 10.021,3026.75 14.119,3033.24C17.318,3038.31 22.901,3042.3 30.207,3043.52L30.207,3056.38C22.602,3059.37 17.578,3063.55 14.649,3067.93C9.664,3075.39 10.021,3083.77 14.119,3090.26C17.318,3095.33 22.901,3099.32 30.207,3100.54L30.207,3114.39C22.602,3117.39 17.578,3121.57 14.649,3125.95C9.664,3133.41 10.021,3141.79 14.119,3148.28C17.318,3153.35 22.901,3157.33 30.207,3158.56L30.207,3172.41C22.602,3175.41 17.578,3179.59 14.649,3183.97C9.664,3191.42 10.021,3199.8 14.119,3206.3C17.318,3211.37 22.901,3215.35 30.207,3216.58L30.207,3230.43C22.602,3233.42 17.578,3237.61 14.649,3241.99C9.664,3249.44 10.021,3257.82 14.119,3264.32C17.318,3269.39 22.901,3273.37 30.207,3274.6L30.207,3291.5C30.207,3297.02 34.684,3301.49 40.198,3301.49C40.198,3301.49 347.316,3301.49 347.316,3301.49C352.831,3301.49 357.308,3297.02 357.308,3291.5L357.308,3158.49L414.659,3032.94C418.062,3033.1 421.383,3031.22 422.884,3027.93L500.224,2858.63C502.191,2854.32 500.292,2849.23 495.987,2847.26C495.987,2847.26 460.996,2831.28 460.996,2831.28C456.691,2829.31 451.599,2831.21 449.632,2835.52L444.217,2847.37ZM347.308,3072.52L347.308,2853.35L40.207,2853.35L40.207,2880.44C44.193,2879.65 48.647,2879.13 53.605,2878.94C55.6,2873.64 60.721,2869.86 66.717,2869.86C74.445,2869.86 80.72,2876.14 80.72,2883.86C80.72,2891.59 74.445,2897.87 66.717,2897.87C60.778,2897.87 55.698,2894.16 53.664,2888.94C48.533,2889.14 44.061,2889.7 40.207,2890.58L40.207,2938.46C44.193,2937.67 48.647,2937.14 53.605,2936.96C55.6,2931.66 60.721,2927.88 66.717,2927.88C74.445,2927.88 80.72,2934.15 80.72,2941.88C80.72,2949.61 74.445,2955.89 66.717,2955.89C60.778,2955.89 55.698,2952.18 53.664,2946.96C48.533,2947.15 44.061,2947.72 40.207,2948.6L40.207,2996.48C44.193,2995.69 48.647,2995.16 53.605,2994.98C55.6,2989.67 60.721,2985.9 66.717,2985.9C74.445,2985.9 80.72,2992.17 80.72,2999.9C80.72,3007.63 74.445,3013.9 66.717,3013.9C60.778,3013.9 55.698,3010.2 53.664,3004.98C48.533,3005.17 44.061,3005.74 40.207,3006.62L40.207,3053.5C44.193,3052.71 48.647,3052.18 53.605,3051.99C55.6,3046.69 60.721,3042.92 66.717,3042.92C74.445,3042.92 80.72,3049.19 80.72,3056.92C80.72,3064.65 74.445,3070.92 66.717,3070.92C60.778,3070.92 55.698,3067.22 53.664,3061.99C48.533,3062.19 44.061,3062.76 40.207,3063.63L40.207,3111.52C44.193,3110.72 48.647,3110.2 53.605,3110.01C55.6,3104.71 60.721,3100.93 66.717,3100.93C74.445,3100.93 80.72,3107.21 80.72,3114.94C80.72,3122.67 74.445,3128.94 66.717,3128.94C60.778,3128.94 55.698,3125.24 53.664,3120.01C48.533,3120.21 44.061,3120.78 40.207,3121.65L40.207,3169.53C44.193,3168.74 48.647,3168.22 53.605,3168.03C55.6,3162.73 60.721,3158.95 66.717,3158.95C74.445,3158.95 80.72,3165.23 80.72,3172.96C80.72,3180.68 74.445,3186.96 66.717,3186.96C60.778,3186.96 55.698,3183.25 53.664,3178.03C48.533,3178.23 44.061,3178.8 40.207,3179.67L40.207,3227.55C44.193,3226.76 48.647,3226.24 53.605,3226.05C55.6,3220.75 60.721,3216.97 66.717,3216.97C74.445,3216.97 80.72,3223.25 80.72,3230.97C80.72,3238.7 74.445,3244.98 66.717,3244.98C60.778,3244.98 55.698,3241.27 53.664,3236.05C48.533,3236.25 44.061,3236.82 40.207,3237.69L40.207,3291.49L347.308,3291.49L347.308,3180.38L339.301,3197.91C337.687,3201.44 333.739,3203.17 330.117,3202.12L314.339,3236.66C313.194,3239.16 311.114,3240.71 309.363,3241.22C308.939,3241.34 308.518,3241.42 308.103,3241.45C303.517,3261.17 293.253,3275.7 279.273,3286.84C277.58,3288.19 275.211,3288.29 273.404,3287.1C271.598,3285.91 270.763,3283.69 271.336,3281.6C273.415,3274.03 274.408,3266.65 271.481,3259.77C270.816,3258.21 270.987,3256.42 271.936,3255.02L287.224,3232.37C286.709,3231.86 286.275,3231.24 285.944,3230.52C285.181,3228.87 284.988,3226.28 286.133,3223.77L301.885,3189.29C298.34,3187.38 296.838,3183 298.537,3179.28L347.308,3072.52ZM296.237,3236.89C291.576,3243.79 281.663,3258.48 281.663,3258.48C282.797,3261.98 283.282,3265.58 283.276,3269.24C290.562,3260.8 295.892,3250.57 298.633,3237.98L296.237,3236.89ZM30.207,3241.28C26.925,3243.05 24.537,3245.19 22.962,3247.55C20.408,3251.37 20.477,3255.65 22.576,3258.98C24.164,3261.5 26.816,3263.43 30.207,3264.36L30.207,3241.28ZM66.717,3226.97C68.926,3226.97 70.72,3228.76 70.72,3230.97C70.72,3233.18 68.926,3234.98 66.717,3234.98C64.507,3234.98 62.714,3233.18 62.714,3230.97C62.714,3228.76 64.507,3226.97 66.717,3226.97ZM296.173,3225.86L296.466,3226C296.513,3226.02 296.559,3226.04 296.605,3226.06L306.187,3230.44L320.988,3198.04L310.973,3193.46L296.173,3225.86ZM30.207,3183.26C26.925,3185.04 24.537,3187.17 22.962,3189.53C20.408,3193.35 20.477,3197.64 22.576,3200.96C24.164,3203.48 26.816,3205.41 30.207,3206.34L30.207,3183.26ZM308.577,3181.37L331.149,3191.68L337.969,3176.75L315.397,3166.44L308.577,3181.37ZM66.717,3168.95C68.926,3168.95 70.72,3170.75 70.72,3172.96C70.72,3175.16 68.926,3176.96 66.717,3176.96C64.507,3176.96 62.714,3175.16 62.714,3172.96C62.714,3170.75 64.507,3168.95 66.717,3168.95ZM347.788,3155.26L398.327,3044.62L375.755,3034.31L356.89,3075.61L356.866,3075.66C356.857,3075.68 356.849,3075.7 356.84,3075.72L356.827,3075.75L319.552,3157.35L342.124,3167.66L347.725,3155.4L347.75,3155.34C347.758,3155.32 347.767,3155.31 347.775,3155.29L347.788,3155.26ZM30.207,3125.24C26.925,3127.02 24.537,3129.15 22.962,3131.51C20.408,3135.33 20.477,3139.62 22.576,3142.94C24.164,3145.46 26.816,3147.39 30.207,3148.33L30.207,3125.24ZM66.717,3110.93C68.926,3110.93 70.72,3112.73 70.72,3114.94C70.72,3117.15 68.926,3118.94 66.717,3118.94C64.507,3118.94 62.714,3117.15 62.714,3114.94C62.714,3112.73 64.507,3110.93 66.717,3110.93ZM30.207,3067.22C26.925,3069 24.537,3071.13 22.962,3073.49C20.408,3077.31 20.477,3081.6 22.576,3084.93C24.164,3087.44 26.816,3089.37 30.207,3090.31L30.207,3067.22ZM66.717,3052.92C68.926,3052.92 70.72,3054.71 70.72,3056.92C70.72,3059.13 68.926,3060.92 66.717,3060.92C64.507,3060.92 62.714,3059.13 62.714,3056.92C62.714,3054.71 64.507,3052.92 66.717,3052.92ZM379.911,3025.22L402.482,3035.53L405.311,3029.34L382.739,3019.02L379.911,3025.22ZM30.207,3010.2C26.925,3011.98 24.537,3014.12 22.962,3016.47C20.408,3020.29 20.477,3024.58 22.576,3027.91C24.164,3030.42 26.816,3032.35 30.207,3033.29L30.207,3010.2ZM381.98,3007.68L414.38,3022.48L421.199,3007.56L388.799,2992.76L381.98,3007.68ZM66.717,2995.9C68.926,2995.9 70.72,2997.69 70.72,2999.9C70.72,3002.11 68.926,3003.9 66.717,3003.9C64.507,3003.9 62.714,3002.11 62.714,2999.9C62.714,2997.69 64.507,2995.9 66.717,2995.9ZM392.954,2983.66L425.354,2998.46L429.679,2988.99L397.279,2974.19L392.954,2983.66ZM401.434,2965.1L433.834,2979.9L481.558,2875.42L449.158,2860.62L401.434,2965.1ZM30.207,2952.19C26.925,2953.96 24.537,2956.1 22.962,2958.45C20.408,2962.27 20.477,2966.56 22.576,2969.89C24.164,2972.41 26.816,2974.33 30.207,2975.27L30.207,2952.19ZM66.717,2937.88C68.926,2937.88 70.72,2939.67 70.72,2941.88C70.72,2944.09 68.926,2945.89 66.717,2945.89C64.507,2945.89 62.714,2944.09 62.714,2941.88C62.714,2939.67 64.507,2937.88 66.717,2937.88ZM30.207,2894.17C26.925,2895.94 24.537,2898.08 22.962,2900.43C20.408,2904.25 20.477,2908.54 22.576,2911.87C24.164,2914.39 26.816,2916.32 30.207,2917.25L30.207,2894.17ZM66.717,2879.86C68.926,2879.86 70.72,2881.65 70.72,2883.86C70.72,2886.07 68.926,2887.87 66.717,2887.87C64.507,2887.87 62.714,2886.07 62.714,2883.86C62.714,2881.65 64.507,2879.86 66.717,2879.86ZM453.313,2851.53L485.713,2866.33L490.537,2855.77L458.137,2840.97L453.313,2851.53Z"/></g></g></svg>